# xmcd
#
# Track frame offsets:
#	182
#	15270
#	31280
#	45720
#	62515
#	77250
#	88605
#	107057
#	119045
#	135955
#	149737
#
# Disc length: 2309 seconds
#
# Revision: 2
# Processed by: cddbd v1.4PL0 Copyright (c) Steve Scherf et al.
# Submitted via: audiograbber 1.81.03
#
DISCID=8709030b
DTITLE=Various Artist - Canadian Blues Masters
DYEAR=1992
DGENRE=Blues
TTITLE0=Downchild Blues BAnd - Gone Fishing
TTITLE1=The`Belairs - Try Me
TTITLE2=The`Powder Blues - Disappearin Baby Blues
TTITLE3=Dutch Mason - I'm Back
TTITLE4=King Biscuit Boy - Operator
TTITLE5=The`Blues Busters - Stormin Norman
TTITLE6=Long John`Baldry - You Wanna Dance
TTITLE7=Morgan`Davis - Bar B Q
TTITLE8=The`Demons - Hottest Brand
TTITLE9=Amos`Garrett - Bert's Boogie
TTITLE10=Neil James`Harnett - Lazy River
EXTD=
EXTT0=Downchild Blues Band\n
EXTT1=The Belairs\n
EXTT2=The Powder Blues\n
EXTT3=Dutch Mason\n
EXTT4=King Biscuit Boy\n
EXTT5=The Blues Busters\n
EXTT6=Long John Baldry\n
EXTT7=Morgan Davis\n
EXTT8=The Demons\n
EXTT9=Amos Garrett\n
EXTT10=Neil James Harnett\n
PLAYORDER=
